<svg xmlns="http://www.w3.org/2000/svg" aria-hidden="true" style="position:absolute;width:0;height:0;overflow:hidden">
  <defs>
    <symbol id="contacts-mail" viewBox="0 0 32 32">
      <path d="M26.071 7.776H5.929a2.495 2.495 0 0 0-2.492 2.492v11.465a2.495 2.495 0 0 0 2.492 2.492h20.142a2.495 2.495 0 0 0 2.492-2.492V10.268a2.495 2.495 0 0 0-2.492-2.492zm.831 2.492v11.465a.814.814 0 0 1-.091.361l-5.872-5.872 5.962-5.962.001.009zM5.098 21.732V10.267l.001-.009 5.962 5.962-5.872 5.872a.814.814 0 0 1-.091-.361zm11.159-3.179a.372.372 0 0 1-.513 0L6.628 9.437h18.745l-9.116 9.116zm-4.021-1.158 2.333 2.333c.382.382.891.593 1.431.593s1.048-.21 1.431-.593l2.333-2.333 5.167 5.168H7.069l5.168-5.168z"/>
    </symbol>
    <symbol id="contacts-github" viewBox="0 0 32 32">
      <path d="M16 3.395c-7.137 0-12.924 5.786-12.924 12.924 0 5.71 3.703 10.555 8.839 12.263.646.119.884-.28.884-.622 0-.308-.012-1.326-.018-2.406-3.596.782-4.354-1.525-4.354-1.525-.588-1.494-1.435-1.891-1.435-1.891-1.173-.802.089-.786.089-.786 1.297.091 1.981 1.332 1.981 1.332 1.153 1.976 3.023 1.405 3.761 1.074.116-.835.451-1.405.821-1.729-2.871-.326-5.889-1.435-5.889-6.387 0-1.411.505-2.564 1.332-3.469-.134-.325-.577-1.64.125-3.42 0 0 1.086-.347 3.555 1.325a12.362 12.362 0 0 1 3.235-.435c1.098.005 2.204.149 3.237.435 2.467-1.672 3.55-1.325 3.55-1.325.703 1.78.261 3.095.127 3.42.829.905 1.331 2.058 1.331 3.469 0 4.964-3.023 6.056-5.901 6.377.464.401.877 1.187.877 2.393 0 1.729-.015 3.121-.015 3.547 0 .344.233.747.888.62 5.133-1.711 8.831-6.553 8.831-12.262 0-7.138-5.787-12.924-12.924-12.924z"/>
    </symbol>
    <symbol id="contacts-map" viewBox="0 0 32 32">
      <path d="M16 3.75c-4.232 0-7.661 3.415-7.661 7.646C8.339 18.711 16 28.25 16 28.25s7.661-9.541 7.661-16.854c0-4.229-3.429-7.646-7.661-7.646zm0 11.876a4.137 4.137 0 1 1 0-8.273 4.137 4.137 0 0 1 0 8.273z"/>
    </symbol>
    <symbol id="contacts-phone" viewBox="0 0 32 32">
      <path d="M21.716 18.45c-1.633 1.633-1.633 3.267-3.267 3.267s-3.267-1.633-4.9-3.267-3.267-3.267-3.267-4.9 1.633-1.633 3.267-3.267-3.267-6.533-4.9-6.533-4.9 4.9-4.9 4.9c0 3.267 3.356 9.889 6.533 13.067s9.8 6.533 13.067 6.533c0 0 4.9-3.267 4.9-4.9s-4.9-6.533-6.533-4.9z"/>
    </symbol>
    <symbol id="contacts-telegram" viewBox="0 0 32 32">
      <path d="M25.843 5.623a2.678 2.678 0 0 0-.83.198h-.003c-.253.101-1.458.607-3.289 1.375L15.158 9.96c-4.709 1.983-9.338 3.935-9.338 3.935l.055-.021s-.319.105-.652.333a1.813 1.813 0 0 0-.521.504c-.164.24-.295.607-.246.987.08.642.496 1.027.795 1.239.302.215.59.316.59.316h.007l4.341 1.463c.195.625 1.323 4.334 1.594 5.188.16.511.316.83.511 1.073.094.124.204.229.337.312.069.04.142.072.219.094l-.045-.011c.014.003.024.014.034.018.036.01.06.013.105.02.687.208 1.239-.219 1.239-.219l.031-.025 2.563-2.333 4.296 3.296.098.042c.895.393 1.802.174 2.281-.212.483-.389.67-.885.67-.885l.031-.08 3.319-17.006c.094-.42.118-.813.014-1.194a1.605 1.605 0 0 0-.695-.931 1.667 1.667 0 0 0-.949-.24zm-.09 1.823c-.003.056.007.05-.018.158v.01l-3.288 16.829c-.014.024-.038.076-.104.129-.069.055-.124.09-.413-.025l-5.254-4.028-3.174 2.893.667-4.259 8.584-8.001c.354-.329.235-.398.235-.398.025-.404-.534-.118-.534-.118L11.63 17.342l-.003-.018-5.202-1.753a.306.306 0 0 0 .027-.011l.028-.014.028-.01 9.341-3.935c2.358-.993 4.733-1.993 6.56-2.765 1.084-.456 2.168-.909 3.254-1.36.073-.028.038-.028.091-.028v-.001z"/>
    </symbol>
    <symbol id="contacts-whatsapp" viewBox="0 0 32 32">
      <path d="M24.635 7.31a12.047 12.047 0 0 0-8.59-3.56C9.355 3.75 3.91 9.195 3.91 15.89c0 2.139.56 4.23 1.622 6.068l-1.723 6.293 6.436-1.689a12.146 12.146 0 0 0 5.8 1.478h.005c6.69 0 12.14-5.446 12.14-12.14 0-3.245-1.263-6.293-3.556-8.59zm-8.584 18.681c-1.814 0-3.589-.488-5.14-1.406l-.368-.221-3.818 1 1.019-3.723-.24-.383a10.024 10.024 0 0 1-1.546-5.369c0-5.565 4.526-10.092 10.097-10.092 2.694 0 5.23 1.053 7.135 2.957a10.034 10.034 0 0 1 2.952 7.139c-.005 5.57-4.532 10.097-10.092 10.097zm5.531-7.56c-.302-.153-1.795-.885-2.072-.986s-.479-.153-.684.153c-.201.302-.785.986-.962 1.191-.177.201-.354.23-.655.077s-1.282-.474-2.441-1.508c-.9-.804-1.512-1.799-1.689-2.101s-.019-.469.134-.617c.139-.134.302-.354.455-.531s.201-.302.302-.507c.1-.201.053-.378-.024-.531s-.684-1.646-.933-2.254c-.244-.593-.498-.512-.684-.521-.177-.009-.378-.009-.579-.009s-.531.077-.809.378c-.278.302-1.062 1.038-1.062 2.531s1.086 2.933 1.24 3.139c.153.201 2.139 3.268 5.183 4.579.723.311 1.287.498 1.727.641.727.23 1.388.196 1.909.119.583-.087 1.795-.732 2.048-1.44s.253-1.316.177-1.44c-.072-.134-.273-.211-.579-.364z"/>
    </symbol>
    <symbol id="form-mail" viewBox="0 0 32 32">
      <path d="M25.056 6.944H6.944a2.262 2.262 0 0 0-2.253 2.264L4.68 22.792a2.27 2.27 0 0 0 2.264 2.264h18.112a2.27 2.27 0 0 0 2.264-2.264V9.208a2.27 2.27 0 0 0-2.264-2.264zm-.453 4.811L16.6 16.758a1.147 1.147 0 0 1-1.2 0l-8.003-5.003a.962.962 0 1 1 1.019-1.63L16 14.868l7.584-4.743a.962.962 0 1 1 1.019 1.63z"/>
    </symbol>
    <symbol id="form-menu" viewBox="0 0 32 32">
      <path d="M5.993 11.552V9.328h20.015v2.224H5.993zm0 5.56h20.015v-2.224H5.993v2.224zm0 5.56h20.015v-2.224H5.993v2.224z"/>
    </symbol>
    <symbol id="form-name" viewBox="0 0 32 32">
      <path d="M16 16c3.315 0 6-2.685 6-6s-2.685-6-6-6-6 2.685-6 6 2.685 6 6 6zm0 3c-4.005 0-12 2.01-12 6v1.5c0 .825.675 1.5 1.5 1.5h21c.825 0 1.5-.675 1.5-1.5V25c0-3.99-7.995-6-12-6z"/>
    </symbol>
    <symbol id="form-phone" viewBox="0 0 32 32">
      <path d="m23.639 19.457-2.687-.307a2.106 2.106 0 0 0-1.735.603l-1.946 1.946a15.912 15.912 0 0 1-6.97-6.97l1.956-1.957c.455-.455.677-1.09.603-1.734l-.307-2.665a2.117 2.117 0 0 0-2.105-1.872h-1.83c-1.195 0-2.189.994-2.115 2.189.561 9.033 7.785 16.246 16.807 16.807 1.195.074 2.189-.92 2.189-2.116v-1.829a2.097 2.097 0 0 0-1.861-2.094z"/>
    </symbol>
    <symbol id="social-facebook-border" viewBox="0 0 32 32">
      <path d="M14.401 12.248v1.687h-1.235v2.062h1.235v6.129h2.538v-6.129h1.703s.16-.988.238-2.07h-1.931v-1.409c0-.212.277-.495.551-.495h1.382V9.875h-1.88c-2.663 0-2.601 2.064-2.601 2.373z"/>
      <path d="M8.65 6.2A2.447 2.447 0 0 0 6.2 8.65v14.7a2.447 2.447 0 0 0 2.45 2.45h14.7a2.447 2.447 0 0 0 2.45-2.45V8.65a2.447 2.447 0 0 0-2.45-2.45H8.65zm0-2.45h14.7a4.901 4.901 0 0 1 4.9 4.9v14.7a4.901 4.901 0 0 1-4.9 4.9H8.65a4.901 4.901 0 0 1-4.9-4.9V8.65a4.901 4.901 0 0 1 4.9-4.9z"/>
    </symbol>
    <symbol id="social-facebook" viewBox="0 0 32 32">
      <path d="M19.887 7.817h2.238V3.921a27.813 27.813 0 0 0-3.144-.171h-.12.006c-3.226 0-5.435 2.029-5.435 5.758v3.43H9.875v4.355h3.557v10.958h4.363V17.295h3.414l.543-4.355h-3.958V9.937c0-1.258.339-2.119 2.093-2.119z"/>
    </symbol>
    <symbol id="social-instagram" viewBox="0 0 32 32">
      <path d="M28.185 10.954c-.057-1.302-.267-2.196-.568-2.972a6.01 6.01 0 0 0-1.416-2.172l-.001-.001a6.065 6.065 0 0 0-2.127-1.399l-.041-.014c-.78-.302-1.67-.511-2.972-.568-1.311-.063-1.727-.077-5.055-.077-3.326 0-3.742.015-5.049.072-1.301.057-2.196.267-2.971.568a6.027 6.027 0 0 0-2.174 1.416l-.001.001a6.033 6.033 0 0 0-1.397 2.127l-.014.041c-.302.78-.512 1.67-.57 2.972-.063 1.311-.077 1.727-.077 5.055 0 3.326.015 3.742.072 5.049.057 1.302.268 2.196.57 2.972.326.85.808 1.575 1.416 2.172l.001.001a6.026 6.026 0 0 0 2.168 1.411c.78.302 1.671.513 2.972.57 1.307.057 1.723.072 5.049.072 3.327 0 3.744-.015 5.049-.072 1.302-.057 2.196-.267 2.972-.568a6.311 6.311 0 0 0 3.571-3.543l.015-.042c.302-.78.512-1.671.57-2.972.057-1.307.071-1.723.071-5.049s-.005-3.742-.061-5.049zM25.98 20.957c-.054 1.197-.255 1.842-.421 2.274a4.092 4.092 0 0 1-2.3 2.315l-.028.009c-.429.168-1.08.369-2.272.421-1.292.057-1.68.072-4.949.072s-3.661-.015-4.949-.072c-1.197-.053-1.842-.253-2.274-.421a3.801 3.801 0 0 1-1.406-.913l-.001-.001a3.822 3.822 0 0 1-.907-1.38l-.008-.026c-.167-.431-.367-1.082-.42-2.274-.057-1.292-.072-1.68-.072-4.949s.015-3.663.072-4.949c.053-1.197.253-1.842.42-2.274a3.741 3.741 0 0 1 .917-1.406l.002-.002a3.803 3.803 0 0 1 1.383-.905l.026-.008c.429-.168 1.08-.367 2.272-.421 1.292-.057 1.68-.071 4.949-.071 3.273 0 3.661.015 4.949.071 1.197.053 1.842.253 2.274.421a3.757 3.757 0 0 1 1.406.914c.407.398.718.876.915 1.409.167.429.367 1.08.42 2.272.057 1.292.072 1.68.072 4.949s-.015 3.651-.072 4.944z"/>
      <path d="M16.005 9.709a6.295 6.295 0 0 0-6.292 6.294 6.295 6.295 0 0 0 12.588.006v-.007a6.295 6.295 0 0 0-6.294-6.294zm0 10.375a4.082 4.082 0 1 1 .001-8.166h.001a4.083 4.083 0 1 1 0 8.168zm8.013-10.623a1.47 1.47 0 1 1-2.94 0 1.47 1.47 0 1 1 2.94 0z"/>
    </symbol>
    <symbol id="social-linkedin" viewBox="0 0 32 32">
      <path d="M13.119 12.399h3.987v2.043h.057c.555-.995 1.912-2.043 3.936-2.043 4.208 0 4.986 2.62 4.986 6.027v6.939h-4.156v-6.152c0-1.467-.03-3.354-2.162-3.354-2.165 0-2.494 1.598-2.494 3.248v6.258h-4.154V12.399zM5.915 12.399h4.322v12.966H5.915V12.399zM10.237 8.797a2.161 2.161 0 1 1-4.322 0 2.161 2.161 0 0 1 4.322 0z"/>
    </symbol>
    <symbol id="social-twitter" viewBox="0 0 32 32">
      <path d="M27.387 8.938a9.194 9.194 0 0 1-2.682.734 4.693 4.693 0 0 0 2.054-2.584 9.381 9.381 0 0 1-2.967 1.134 4.673 4.673 0 0 0-3.411-1.472 4.67 4.67 0 0 0-4.55 5.733A13.26 13.26 0 0 1 6.203 7.6a4.664 4.664 0 0 0-.631 2.348c0 1.619.823 3.05 2.077 3.887a4.662 4.662 0 0 1-2.117-.583v.058a4.67 4.67 0 0 0 3.749 4.58 4.667 4.667 0 0 1-2.112.079 4.689 4.689 0 0 0 4.362 3.247 9.37 9.37 0 0 1-6.919 1.935 13.212 13.212 0 0 0 7.165 2.099c8.592 0 13.292-7.12 13.292-13.292 0-.204-.004-.405-.013-.605a9.374 9.374 0 0 0 2.33-2.415z"/>
    </symbol>
    <symbol id="close-close" viewBox="0 0 32 32">
      <path d="M24.5 9.212 22.788 7.5 16 14.288 9.212 7.5 7.5 9.212 14.288 16 7.5 22.788 9.212 24.5 16 17.712l6.788 6.788 1.712-1.712L17.712 16 24.5 9.212z"/>
    </symbol>
  </defs>
</svg>
