<!-- Generated by IcoMoon.io -->
<svg version="1.1" xmlns="http://www.w3.org/2000/svg" width="32" height="32" viewBox="0 0 32 32">
<title>contacts-map</title>
<path d="M16 0c-5.527 0-10.006 4.461-10.006 9.986 0 9.554 10.006 22.014 10.006 22.014s10.006-12.462 10.006-22.014c0-5.523-4.479-9.986-10.006-9.986zM16 15.512c-1.433 0-2.807-0.569-3.821-1.582s-1.583-2.388-1.583-3.821c0-1.433 0.569-2.807 1.583-3.821s2.388-1.583 3.821-1.583c1.433 0 2.807 0.569 3.821 1.583s1.583 2.388 1.583 3.821c0 1.433-0.569 2.808-1.583 3.821s-2.388 1.582-3.821 1.582z"></path>
</svg>
