<!-- Generated by IcoMoon.io -->
<svg version="1.1" xmlns="http://www.w3.org/2000/svg" width="32" height="32" viewBox="0 0 32 32">
<title>contacts-telegram</title>
<path d="M29.4 1.874c-0.389 0.028-0.77 0.119-1.129 0.27h-0.005c-0.345 0.137-1.985 0.827-4.478 1.872l-8.934 3.763c-6.41 2.699-12.712 5.356-12.712 5.356l0.075-0.029c0 0-0.434 0.143-0.888 0.454-0.28 0.178-0.522 0.412-0.709 0.686-0.223 0.327-0.402 0.826-0.335 1.343 0.109 0.874 0.675 1.398 1.082 1.687 0.411 0.293 0.804 0.43 0.804 0.43h0.010l5.91 1.991c0.265 0.851 1.801 5.9 2.17 7.063 0.218 0.695 0.43 1.129 0.695 1.461 0.128 0.169 0.278 0.311 0.459 0.425 0.094 0.055 0.194 0.098 0.298 0.128l-0.061-0.015c0.018 0.005 0.033 0.019 0.046 0.024 0.048 0.013 0.081 0.018 0.143 0.028 0.935 0.283 1.687-0.298 1.687-0.298l0.042-0.034 3.489-3.177 5.848 4.486 0.133 0.057c1.219 0.535 2.453 0.237 3.105-0.288 0.657-0.529 0.912-1.205 0.912-1.205l0.042-0.109 4.519-23.15c0.128-0.571 0.161-1.106 0.019-1.625-0.146-0.525-0.483-0.977-0.945-1.267-0.388-0.236-0.838-0.35-1.291-0.327zM29.277 4.355c-0.005 0.076 0.010 0.068-0.024 0.214v0.013l-4.476 22.909c-0.019 0.033-0.052 0.104-0.142 0.176-0.094 0.075-0.169 0.122-0.563-0.034l-7.152-5.484-4.321 3.938 0.908-5.797 11.686-10.892c0.482-0.448 0.321-0.542 0.321-0.542 0.034-0.549-0.727-0.161-0.727-0.161l-14.736 9.129-0.005-0.024-7.081-2.387c0.012-0.004 0.024-0.009 0.036-0.015l0.039-0.019 0.038-0.013c0 0 6.306-2.658 12.717-5.356 3.21-1.352 6.443-2.713 8.93-3.764 1.475-0.621 2.952-1.238 4.429-1.852 0.099-0.039 0.052-0.039 0.123-0.039v-0.001z"></path>
</svg>
