<!-- Generated by IcoMoon.io -->
<svg version="1.1" xmlns="http://www.w3.org/2000/svg" width="32" height="32" viewBox="0 0 32 32">
<title>form-phone</title>
<path d="M28.664 21.731l-4.454-0.509c-1.070-0.123-2.122 0.245-2.876 1l-3.226 3.227c-4.962-2.525-9.031-6.576-11.556-11.556l3.244-3.244c0.754-0.754 1.122-1.806 0.999-2.876l-0.509-4.419c-0.21-1.771-1.701-3.104-3.49-3.104h-3.034c-1.982 0-3.63 1.648-3.507 3.63 0.929 14.975 12.906 26.934 27.864 27.864 1.981 0.123 3.63-1.526 3.63-3.507v-3.033c0.017-1.771-1.315-3.262-3.086-3.472z"></path>
</svg>
