<!-- Generated by IcoMoon.io -->
<svg version="1.1" xmlns="http://www.w3.org/2000/svg" width="32" height="32" viewBox="0 0 32 32">
<title>form-mail</title>
<path d="M28.806 3.194h-25.612c-1.761 0-3.186 1.441-3.186 3.201l-0.016 19.209c0 1.761 1.441 3.201 3.201 3.201h25.612c1.761 0 3.201-1.441 3.201-3.201v-19.209c0-1.761-1.441-3.201-3.201-3.201zM28.166 9.997l-11.317 7.075c-0.512 0.32-1.185 0.32-1.697 0l-11.317-7.075c-0.4-0.256-0.64-0.688-0.64-1.153 0-1.072 1.169-1.713 2.081-1.153l10.725 6.707 10.725-6.707c0.912-0.56 2.081 0.080 2.081 1.153 0 0.464-0.24 0.896-0.64 1.153z"></path>
</svg>
