<!-- Generated by IcoMoon.io -->
<svg version="1.1" xmlns="http://www.w3.org/2000/svg" width="32" height="32" viewBox="0 0 32 32">
<title>social-linkedin</title>
<path d="M11.426 10.283h6.329v3.244h0.090c0.88-1.579 3.036-3.244 6.247-3.244 6.68 0 7.915 4.159 7.915 9.567v11.014h-6.596v-9.765c0-2.329-0.048-5.325-3.431-5.325-3.436 0-3.96 2.536-3.96 5.156v9.934h-6.594v-20.581z"></path>
<path d="M-0.007 10.283h6.86v20.581h-6.86v-20.581z"></path>
<path d="M6.853 4.566c0 1.895-1.536 3.43-3.43 3.43s-3.43-1.536-3.43-3.43c0-1.895 1.536-3.43 3.43-3.43s3.43 1.536 3.43 3.43z"></path>
</svg>
