<!-- Generated by IcoMoon.io -->
<svg version="1.1" xmlns="http://www.w3.org/2000/svg" width="32" height="32" viewBox="0 0 32 32">
<title>social-facebook-border</title>
<path d="M13.912 11.099v2.203h-1.613v2.693h1.613v8.005h3.315v-8.005h2.224c0 0 0.21-1.291 0.31-2.704h-2.522v-1.84c0-0.277 0.362-0.646 0.72-0.646h1.805v-2.805h-2.456c-3.478 0-3.397 2.696-3.397 3.099z"></path>
<path d="M6.4 3.2c-0.849 0-1.663 0.337-2.263 0.937s-0.937 1.414-0.937 2.263v19.2c0 0.849 0.337 1.663 0.937 2.263s1.414 0.937 2.263 0.937h19.2c0.849 0 1.663-0.337 2.263-0.937s0.937-1.414 0.937-2.263v-19.2c0-0.849-0.337-1.663-0.937-2.263s-1.414-0.937-2.263-0.937h-19.2zM6.4 0h19.2c1.697 0 3.325 0.674 4.525 1.875s1.875 2.828 1.875 4.526v19.2c0 1.697-0.674 3.325-1.875 4.525s-2.828 1.875-4.525 1.875h-19.2c-1.697 0-3.325-0.674-4.526-1.875s-1.875-2.828-1.875-4.525v-19.2c0-1.697 0.674-3.325 1.875-4.526s2.828-1.875 4.526-1.875v0z"></path>
</svg>
